<svg width="215" height="36" viewBox="0 0 215 36" fill="none" xmlns="http://www.w3.org/2000/svg">
<path d="M58.5781 8.9375L63.5 22.0156L68.4102 8.9375H72.2422V26H69.2891V20.375L69.582 12.8516L64.543 26H62.4219L57.3945 12.8633L57.6875 20.375V26H54.7344V8.9375H58.5781ZM81.0664 26.2344C79.2617 26.2344 77.7969 25.668 76.6719 24.5352C75.5547 23.3945 74.9961 21.8789 74.9961 19.9883V19.6367C74.9961 18.3711 75.2383 17.2422 75.7227 16.25C76.2148 15.25 76.9023 14.4727 77.7852 13.918C78.668 13.3633 79.6523 13.0859 80.7383 13.0859C82.4648 13.0859 83.7969 13.6367 84.7344 14.7383C85.6797 15.8398 86.1523 17.3984 86.1523 19.4141V20.5625H77.8672C77.9531 21.6094 78.3008 22.4375 78.9102 23.0469C79.5273 23.6562 80.3008 23.9609 81.2305 23.9609C82.5352 23.9609 83.5977 23.4336 84.418 22.3789L85.9531 23.8438C85.4453 24.6016 84.7656 25.1914 83.9141 25.6133C83.0703 26.0273 82.1211 26.2344 81.0664 26.2344ZM80.7266 15.3711C79.9453 15.3711 79.3125 15.6445 78.8281 16.1914C78.3516 16.7383 78.0469 17.5 77.9141 18.4766H83.3398V18.2656C83.2773 17.3125 83.0234 16.5938 82.5781 16.1094C82.1328 15.6172 81.5156 15.3711 80.7266 15.3711ZM95.9492 26C95.8242 25.7578 95.7148 25.3633 95.6211 24.8164C94.7148 25.7617 93.6055 26.2344 92.293 26.2344C91.0195 26.2344 89.9805 25.8711 89.1758 25.1445C88.3711 24.418 87.9688 23.5195 87.9688 22.4492C87.9688 21.0977 88.4688 20.0625 89.4688 19.3438C90.4766 18.6172 91.9141 18.2539 93.7812 18.2539H95.5273V17.4219C95.5273 16.7656 95.3438 16.2422 94.9766 15.8516C94.6094 15.4531 94.0508 15.2539 93.3008 15.2539C92.6523 15.2539 92.1211 15.418 91.707 15.7461C91.293 16.0664 91.0859 16.4766 91.0859 16.9766H88.2383C88.2383 16.2812 88.4688 15.6328 88.9297 15.0312C89.3906 14.4219 90.0156 13.9453 90.8047 13.6016C91.6016 13.2578 92.4883 13.0859 93.4648 13.0859C94.9492 13.0859 96.1328 13.4609 97.0156 14.2109C97.8984 14.9531 98.3516 16 98.375 17.3516V23.0703C98.375 24.2109 98.5352 25.1211 98.8555 25.8008V26H95.9492ZM92.8203 23.9492C93.3828 23.9492 93.9102 23.8125 94.4023 23.5391C94.9023 23.2656 95.2773 22.8984 95.5273 22.4375V20.0469H93.9922C92.9375 20.0469 92.1445 20.2305 91.6133 20.5977C91.082 20.9648 90.8164 21.4844 90.8164 22.1562C90.8164 22.7031 90.9961 23.1406 91.3555 23.4688C91.7227 23.7891 92.2109 23.9492 92.8203 23.9492ZM104.387 26H101.539V8H104.387V26ZM123.723 18.3828H116.715V23.6328H124.906V26H113.75V8.9375H124.824V11.3281H116.715V16.0391H123.723V18.3828ZM131.598 17.4922L134.012 13.3203H137.176L133.297 19.5664L137.305 26H134.164L131.633 21.6641L129.113 26H125.949L129.957 19.5664L126.09 13.3203H129.23L131.598 17.4922ZM150.219 19.7891C150.219 21.75 149.773 23.3164 148.883 24.4883C147.992 25.6523 146.797 26.2344 145.297 26.2344C143.906 26.2344 142.793 25.7773 141.957 24.8633V30.875H139.109V13.3203H141.734L141.852 14.6094C142.688 13.5938 143.824 13.0859 145.262 13.0859C146.809 13.0859 148.02 13.6641 148.895 14.8203C149.777 15.9688 150.219 17.5664 150.219 19.6133V19.7891ZM147.383 19.543C147.383 18.2773 147.129 17.2734 146.621 16.5312C146.121 15.7891 145.402 15.418 144.465 15.418C143.301 15.418 142.465 15.8984 141.957 16.8594V22.4844C142.473 23.4688 143.316 23.9609 144.488 23.9609C145.395 23.9609 146.102 23.5977 146.609 22.8711C147.125 22.1367 147.383 21.0273 147.383 19.543ZM155.668 26H152.82V8H155.668V26ZM158.246 19.543C158.246 18.3008 158.492 17.1836 158.984 16.1914C159.477 15.1914 160.168 14.4258 161.059 13.8945C161.949 13.3555 162.973 13.0859 164.129 13.0859C165.84 13.0859 167.227 13.6367 168.289 14.7383C169.359 15.8398 169.938 17.3008 170.023 19.1211L170.035 19.7891C170.035 21.0391 169.793 22.1562 169.309 23.1406C168.832 24.125 168.145 24.8867 167.246 25.4258C166.355 25.9648 165.324 26.2344 164.152 26.2344C162.363 26.2344 160.93 25.6406 159.852 24.4531C158.781 23.2578 158.246 21.668 158.246 19.6836V19.543ZM161.094 19.7891C161.094 21.0938 161.363 22.1172 161.902 22.8594C162.441 23.5938 163.191 23.9609 164.152 23.9609C165.113 23.9609 165.859 23.5859 166.391 22.8359C166.93 22.0859 167.199 20.9883 167.199 19.543C167.199 18.2617 166.922 17.2461 166.367 16.4961C165.82 15.7461 165.074 15.3711 164.129 15.3711C163.199 15.3711 162.461 15.7422 161.914 16.4844C161.367 17.2188 161.094 18.3203 161.094 19.7891ZM179.082 15.9219C178.707 15.8594 178.32 15.8281 177.922 15.8281C176.617 15.8281 175.738 16.3281 175.285 17.3281V26H172.438V13.3203H175.156L175.227 14.7383C175.914 13.6367 176.867 13.0859 178.086 13.0859C178.492 13.0859 178.828 13.1406 179.094 13.25L179.082 15.9219ZM186.23 26.2344C184.426 26.2344 182.961 25.668 181.836 24.5352C180.719 23.3945 180.16 21.8789 180.16 19.9883V19.6367C180.16 18.3711 180.402 17.2422 180.887 16.25C181.379 15.25 182.066 14.4727 182.949 13.918C183.832 13.3633 184.816 13.0859 185.902 13.0859C187.629 13.0859 188.961 13.6367 189.898 14.7383C190.844 15.8398 191.316 17.3984 191.316 19.4141V20.5625H183.031C183.117 21.6094 183.465 22.4375 184.074 23.0469C184.691 23.6562 185.465 23.9609 186.395 23.9609C187.699 23.9609 188.762 23.4336 189.582 22.3789L191.117 23.8438C190.609 24.6016 189.93 25.1914 189.078 25.6133C188.234 26.0273 187.285 26.2344 186.23 26.2344ZM185.891 15.3711C185.109 15.3711 184.477 15.6445 183.992 16.1914C183.516 16.7383 183.211 17.5 183.078 18.4766H188.504V18.2656C188.441 17.3125 188.188 16.5938 187.742 16.1094C187.297 15.6172 186.68 15.3711 185.891 15.3711ZM200.176 15.9219C199.801 15.8594 199.414 15.8281 199.016 15.8281C197.711 15.8281 196.832 16.3281 196.379 17.3281V26H193.531V13.3203H196.25L196.32 14.7383C197.008 13.6367 197.961 13.0859 199.18 13.0859C199.586 13.0859 199.922 13.1406 200.188 13.25L200.176 15.9219Z" fill="#457003"/>
<path d="M18.9448 7.81386C14.3691 7.42368 9.9481 11.1412 10.2437 15.7239C10.7184 24.1085 17.7582 27.0794 21.911 27.0794C25.866 27.0794 32.7874 24.2667 33.5783 15.7239C33.874 11.1412 29.4529 7.42368 24.8773 7.81386C23.6706 7.91677 22.333 8.64384 21.911 8.71893C21.4891 8.64384 20.1515 7.91677 18.9448 7.81386Z" fill="#00162B" fill-opacity="0.2"/>
<path fill-rule="evenodd" clip-rule="evenodd" d="M34.367 15.7858L34.366 15.7968C33.5263 24.8654 26.1432 27.8704 21.911 27.8704C19.6726 27.8704 16.7027 27.0774 14.2171 25.1739C11.7062 23.251 9.70594 20.2046 9.45416 15.7717C9.12451 10.6288 14.0376 6.60153 19.012 7.02572C19.7299 7.08694 20.4511 7.32805 21.0027 7.53722C21.1902 7.60833 21.3743 7.68227 21.5316 7.74541C21.6041 7.77452 21.6708 7.80133 21.7296 7.82451C21.7999 7.85227 21.8599 7.87533 21.911 7.89402C21.9622 7.87533 22.0221 7.85227 22.0925 7.82451C22.1512 7.80133 22.218 7.77452 22.2905 7.74541C22.4477 7.68227 22.6319 7.60833 22.8194 7.53722C23.3709 7.32805 24.0921 7.08694 24.8101 7.02572C29.7855 6.60144 34.6996 10.6305 34.3677 15.7748L34.367 15.7858ZM21.911 8.71893C21.7709 8.69399 21.5298 8.59716 21.2261 8.47515C20.6151 8.22977 19.7508 7.88259 18.9448 7.81386C14.3691 7.42368 9.9481 11.1412 10.2437 15.7239C10.7184 24.1085 17.7582 27.0794 21.911 27.0794C25.866 27.0794 32.7874 24.2667 33.5783 15.7239C33.874 11.1412 29.4529 7.42368 24.8773 7.81386C24.0713 7.88259 23.2069 8.22977 22.596 8.47515C22.2922 8.59716 22.0511 8.69399 21.911 8.71893Z" fill="#00162B" fill-opacity="0.2"/>
<path d="M21.423 6.35971C20.9222 2.67227 17.956 3.26552 16.1762 1.28799C16.6774 2.50949 19.7555 5.86968 21.423 6.35971Z" fill="#73B40D"/>
<path fill-rule="evenodd" clip-rule="evenodd" d="M21.9548 6.97853C22.1646 6.79825 22.2687 6.52398 22.2315 6.24991C22.0908 5.21368 21.7674 4.42011 21.2912 3.79514C20.8186 3.17493 20.2362 2.77508 19.6699 2.46625C19.3891 2.31313 19.1019 2.1771 18.8334 2.05094C18.8129 2.04131 18.7925 2.03173 18.7722 2.0222C18.5204 1.90399 18.2851 1.79352 18.0542 1.67293C17.5612 1.41538 17.1366 1.13528 16.7827 0.742142C16.5173 0.447162 16.0781 0.385959 15.7421 0.597124C15.406 0.808289 15.2707 1.23058 15.4213 1.59773C15.5912 2.01174 15.9363 2.52374 16.3292 3.02825C16.7359 3.5504 17.2412 4.12413 17.7816 4.67143C18.3212 5.21796 18.9072 5.74979 19.4768 6.18222C20.0303 6.60236 20.6308 6.9774 21.1929 7.14258C21.4583 7.22056 21.7451 7.15881 21.9548 6.97853ZM21.2027 5.37598C21.2983 5.66573 21.3729 5.99136 21.423 6.35971C21.1501 6.27951 20.8394 6.12245 20.5084 5.91046C19.5639 5.30553 18.4541 4.25338 17.5851 3.26422C16.8979 2.48198 16.3613 1.73912 16.1762 1.28799C16.7352 1.90911 17.4113 2.27661 18.0912 2.6028C18.2017 2.65583 18.3124 2.70776 18.4226 2.75952C19.5778 3.30177 20.6908 3.82427 21.2027 5.37598Z" fill="#436C02"/>
<path d="M21.7142 7.54623C22.215 3.85879 25.2727 2.07902 27.2502 2.47454C24.284 2.87002 25.075 6.62729 21.7142 7.54623Z" fill="#73B40D"/>
<path fill-rule="evenodd" clip-rule="evenodd" d="M21.1766 8.15999C20.9706 7.97953 20.8688 7.70779 20.9057 7.43643C21.458 3.3695 24.8895 1.17023 27.4103 1.67442C27.8015 1.75266 28.0787 2.10228 28.0658 2.501C28.0529 2.89972 27.7535 3.23064 27.3581 3.28336C26.3371 3.41948 25.9659 4.05242 25.3489 5.20037L25.3415 5.21419C24.7487 6.31733 23.9643 7.77692 21.9295 8.3333C21.6653 8.40553 21.3825 8.34044 21.1766 8.15999ZM21.9016 6.62374C21.8212 6.91656 21.758 7.22411 21.7142 7.54622C22.0489 7.45472 22.3424 7.33508 22.6025 7.19342C23.6617 6.61656 24.1678 5.67458 24.6481 4.78076C24.8883 4.33362 25.1221 3.89854 25.4154 3.52725C25.8378 2.9925 26.3837 2.59007 27.2503 2.47454C26.5516 2.33481 25.7182 2.46658 24.9103 2.85804C23.6311 3.47785 22.416 4.7487 21.9016 6.62374Z" fill="#436C02"/>
<path fill-rule="evenodd" clip-rule="evenodd" d="M21.7132 0.867538C22.1639 0.867538 22.5292 1.23286 22.5292 1.68351V7.61604C22.5292 8.06669 22.1639 8.43201 21.7132 8.43201C21.2626 8.43201 20.8973 8.06669 20.8973 7.61604V1.68351C20.8973 1.23286 21.2626 0.867538 21.7132 0.867538Z" fill="#457003"/>
<path d="M18.1537 7.0229C13.5781 6.63271 9.15705 10.3502 9.45268 14.9329C9.92731 23.3176 16.9672 26.2884 21.12 26.2884C25.075 26.2884 31.9963 23.4758 32.7873 14.9329C33.083 10.3502 28.6619 6.63271 24.0862 7.0229C22.8795 7.1258 21.5419 7.85288 21.12 7.92796C20.6981 7.85288 19.3605 7.1258 18.1537 7.0229Z" fill="#FF3A1A"/>
<path fill-rule="evenodd" clip-rule="evenodd" d="M33.6008 14.9968L33.5998 15.0082C32.7586 24.0933 25.3609 27.1044 21.12 27.1044C18.8765 27.1044 15.9011 26.3098 13.4109 24.4027C10.8945 22.4757 8.89042 19.4228 8.63818 14.9822C8.30745 9.82168 13.236 5.78461 18.223 6.20987C18.9446 6.27141 19.6685 6.51357 20.2205 6.72291C20.4082 6.7941 20.5928 6.86823 20.7502 6.93141C20.8226 6.96048 20.8892 6.98724 20.9477 7.01032C21.0141 7.03651 21.071 7.05845 21.12 7.07646C21.1689 7.05845 21.2259 7.03651 21.2923 7.01032C21.3508 6.98723 21.4174 6.96048 21.4898 6.93141C21.6471 6.86823 21.8317 6.7941 22.0195 6.72291C22.5715 6.51357 23.2953 6.27141 24.0169 6.20987C29.0049 5.78452 33.9346 9.82337 33.6016 14.9855L33.6008 14.9968ZM21.12 7.92796C20.9799 7.90303 20.7388 7.80619 20.435 7.68419C19.8241 7.43881 18.9597 7.09163 18.1537 7.0229C13.5781 6.63271 9.15704 10.3502 9.45267 14.9329C9.9273 23.3176 16.9672 26.2884 21.12 26.2884C25.075 26.2884 31.9963 23.4758 32.7873 14.9329C33.083 10.3502 28.6618 6.63271 24.0862 7.0229C23.2802 7.09163 22.4159 7.43881 21.8049 7.68419C21.5012 7.80619 21.2601 7.90303 21.12 7.92796Z" fill="#A20505"/>
<path fill-rule="evenodd" clip-rule="evenodd" d="M11.3256 9.75823C12.9884 7.91239 15.546 6.80053 18.1537 7.02291C18.9597 7.09164 19.8241 7.43882 20.435 7.6842C20.7388 7.8062 20.9799 7.90304 21.12 7.92798C21.2601 7.90304 21.5012 7.8062 21.805 7.6842C22.4159 7.43882 23.2803 7.09164 24.0863 7.02291C26.8459 6.78758 29.5493 8.04644 31.1957 10.0881C29.0494 8.98873 26.4673 8.40185 24.0863 8.6049C23.2803 8.67363 22.4159 9.02081 21.805 9.26619C21.5012 9.38819 21.2601 9.48503 21.12 9.50996C20.9799 9.48503 20.7388 9.38819 20.435 9.26619C19.8241 9.02081 18.9597 8.67363 18.1537 8.6049C15.6922 8.395 13.3057 8.85185 11.3256 9.75823Z" fill="#E83214"/>
<path fill-rule="evenodd" clip-rule="evenodd" d="M13.2395 23.203C15.3652 24.5365 17.7263 25.1019 19.5379 25.1019C23.4929 25.1019 30.4143 22.2893 31.2052 13.7464C31.3462 11.5615 30.415 9.57319 28.906 8.13302C31.3041 9.52697 32.9726 12.0599 32.7872 14.9329C31.9963 23.4758 25.0749 26.2884 21.1199 26.2884C18.8418 26.2884 15.6948 25.3944 13.2395 23.203Z" fill="#E83214"/>
<path d="M21.7132 6.13071C24.4817 3.66102 25.2727 6.42958 27.8435 6.82506C26.5446 7.06241 23.0257 7.26998 21.7132 6.13071Z" fill="#8ED918"/>
<path fill-rule="evenodd" clip-rule="evenodd" d="M20.8972 6.13622C20.8956 5.90173 20.995 5.67789 21.17 5.52179C21.9252 4.84807 22.6323 4.45195 23.347 4.33621C24.0806 4.21741 24.6981 4.41383 25.2176 4.67371C25.4715 4.80076 25.7146 4.94946 25.9371 5.08883C25.9847 5.11862 26.0312 5.14792 26.0771 5.17678C26.2544 5.28843 26.4214 5.39355 26.5984 5.49581C27.033 5.74678 27.4646 5.9412 27.9675 6.01857C28.3613 6.07914 28.6537 6.41522 28.6593 6.81359C28.6649 7.21195 28.382 7.55611 27.9901 7.62773C27.2793 7.75763 26.0118 7.87309 24.7423 7.80904C24.1054 7.77691 23.444 7.69852 22.8395 7.54363C22.2456 7.39143 21.6418 7.14923 21.1783 6.74691C21.0012 6.59319 20.8988 6.37072 20.8972 6.13622ZM22.3764 5.61125C22.168 5.7499 21.9477 5.92151 21.7132 6.1307C21.9151 6.30596 22.1692 6.44934 22.4594 6.56565C23.4222 6.95148 24.7822 7.03932 25.9513 7.00422C26.7206 6.98112 27.4073 6.90476 27.8435 6.82505C27.1836 6.72354 26.641 6.46568 26.1521 6.18018C25.974 6.07619 25.8031 5.96853 25.6362 5.86343C24.6274 5.22816 23.7669 4.68621 22.3764 5.61125Z" fill="#436C02"/>
<path d="M21.1199 6.42956C19.5379 4.45203 17.7581 5.63853 14.3963 5.83628C15.7806 6.62729 19.579 7.23347 21.1199 6.42956Z" fill="#8ED918"/>
<path fill-rule="evenodd" clip-rule="evenodd" d="M21.9183 6.59774C21.9686 6.35903 21.9094 6.11034 21.7571 5.91984C21.2856 5.33044 20.7618 4.93336 20.1583 4.70967C19.5657 4.49002 18.9607 4.4619 18.3688 4.50319C17.8706 4.53795 17.3294 4.62729 16.7806 4.71789C16.691 4.73267 16.6013 4.74748 16.5116 4.76209C15.8543 4.86909 15.146 4.9748 14.3484 5.02171C13.988 5.04292 13.6843 5.29852 13.6019 5.65009C13.5195 6.00166 13.678 6.36558 13.9915 6.54474C14.8236 7.02024 16.2465 7.38665 17.607 7.54173C18.3018 7.62094 19.0169 7.64949 19.674 7.601C20.3175 7.55352 20.9705 7.42785 21.4973 7.15299C21.7136 7.04015 21.868 6.83645 21.9183 6.59774ZM20.4898 5.80959C20.7052 5.96885 20.9142 6.17246 21.1199 6.42956C20.8851 6.55205 20.5979 6.6418 20.2748 6.70315C19.1153 6.92334 17.4936 6.77768 16.1736 6.46655C15.4475 6.29541 14.8127 6.0742 14.3964 5.83628C15.0591 5.79729 15.6604 5.71988 16.2108 5.63585C16.4566 5.59832 16.6924 5.55946 16.9189 5.52212C18.4229 5.27421 19.521 5.09322 20.4898 5.80959Z" fill="#436C02"/>
<path d="M18.3338 9.45102C19.1466 10.6605 18.3348 12.6294 16.5205 13.8487C14.7063 15.0679 12.5766 15.0758 11.7637 13.8663C10.9509 12.6568 11.7627 10.6879 13.577 9.46866C15.3913 8.24941 17.5209 8.24151 18.3338 9.45102Z" fill="#FE7B7B"/>
<path fill-rule="evenodd" clip-rule="evenodd" d="M14.9649 10.4115C15.2294 10.7764 15.1481 11.2866 14.7833 11.5511C14.5162 11.7447 14.3153 11.9709 14.1694 12.2312C13.949 12.6242 13.4517 12.7642 13.0586 12.5438C12.6655 12.3234 12.5255 11.8261 12.7459 11.433C13.0129 10.957 13.3764 10.5554 13.8253 10.2299C14.1901 9.96539 14.7003 10.0467 14.9649 10.4115Z" fill="white"/>
<path d="M28.2846 18.1988C28.0234 18.5533 27.5244 18.6289 27.17 18.3678C26.8155 18.1066 26.7399 17.6076 27.001 17.2532C27.2622 16.8987 27.7612 16.8231 28.1156 17.0842C28.47 17.3454 28.5457 17.8444 28.2846 18.1988Z" fill="#C5270E"/>
<path d="M29.5498 20.8275C29.2886 21.182 28.7896 21.2576 28.4352 20.9965C28.0807 20.7353 28.0051 20.2363 28.2662 19.8819C28.5273 19.5274 29.0264 19.4518 29.3808 19.7129C29.7352 19.9741 29.8109 20.4731 29.5498 20.8275Z" fill="#C5270E"/>
<path d="M30.4995 18.131C30.3036 18.3969 29.9294 18.4536 29.6636 18.2577C29.3977 18.0619 29.341 17.6876 29.5368 17.4218C29.7327 17.156 30.107 17.0993 30.3728 17.2951C30.6386 17.4909 30.6953 17.8652 30.4995 18.131Z" fill="#C5270E"/>
<path d="M27.5392 22.8931C27.2781 23.2476 26.7791 23.3232 26.4246 23.0621C26.0702 22.801 25.9946 22.3019 26.2557 21.9475C26.5168 21.5931 27.0158 21.5174 27.3703 21.7786C27.7247 22.0397 27.8004 22.5387 27.5392 22.8931Z" fill="#C5270E"/>
<path d="M26.7737 20.3034C26.5126 20.6578 26.0136 20.7335 25.6591 20.4723C25.3047 20.2112 25.229 19.7122 25.4902 19.3578C25.7513 19.0033 26.2503 18.9277 26.6048 19.1888C26.9592 19.4499 27.0348 19.949 26.7737 20.3034Z" fill="#C5270E"/>
<path d="M24.5681 24.0799C24.307 24.4343 23.808 24.51 23.4535 24.2488C23.0991 23.9877 23.0235 23.4887 23.2846 23.1342C23.5457 22.7798 24.0447 22.7042 24.3992 22.9653C24.7536 23.2264 24.8293 23.7254 24.5681 24.0799Z" fill="#C5270E"/>
<path d="M24.2574 21.5693C23.9963 21.9237 23.4973 21.9994 23.1428 21.7382C22.7884 21.4771 22.7127 20.9781 22.9739 20.6236C23.235 20.2692 23.734 20.1936 24.0885 20.4547C24.4429 20.7158 24.5185 21.2148 24.2574 21.5693Z" fill="#C5270E"/>
<path d="M21.4535 24.5054C21.2577 24.7712 20.8834 24.828 20.6176 24.6321C20.3518 24.4363 20.295 24.062 20.4909 23.7962C20.6867 23.5304 21.061 23.4736 21.3268 23.6695C21.5926 23.8653 21.6494 24.2396 21.4535 24.5054Z" fill="#C5270E"/>
<path d="M34.9633 20.4339C30.1269 25.6411 25.5097 34.8482 20.7167 30.2912C15.9237 25.7342 24.9016 20.6731 29.738 15.4659C34.5743 10.2586 38.3693 8.56266 39.8123 9.93453C41.2552 11.3064 39.7996 15.2266 34.9633 20.4339Z" fill="#00162B" fill-opacity="0.2"/>
<path fill-rule="evenodd" clip-rule="evenodd" d="M24.498 32.256C22.9924 32.6427 21.5084 32.2476 20.123 30.9304C18.7373 29.6129 18.2627 28.144 18.5749 26.6079C18.8673 25.1696 19.8269 23.8006 20.9769 22.53C22.1408 21.2441 23.6057 19.9478 25.0439 18.6775L25.0951 18.6323C26.533 17.3623 27.946 16.1143 29.1062 14.8652C31.5599 12.2233 33.7955 10.4199 35.6507 9.45321C36.5766 8.97073 37.4539 8.67221 38.2456 8.61299C39.0494 8.55287 39.8214 8.73954 40.406 9.29531C40.991 9.85154 41.2219 10.6193 41.2103 11.4341C41.1989 12.2361 40.9561 13.1385 40.5354 14.1008C39.6923 16.029 38.048 18.3935 35.5951 21.0345C34.4888 22.2257 33.3898 23.6368 32.2686 25.0765C32.1964 25.1691 32.1241 25.262 32.0517 25.3548C30.869 26.8724 29.6577 28.4104 28.4364 29.6447C27.2289 30.8651 25.9139 31.8923 24.498 32.256ZM31.5945 24.5246C32.7088 23.0938 33.83 21.654 34.9633 20.4339C39.7996 15.2266 41.2552 11.3064 39.8123 9.93453C38.3693 8.56266 34.5743 10.2586 29.738 15.4659C28.5482 16.7469 27.1077 18.0192 25.6832 19.2772C21.3177 23.1328 17.1029 26.8553 20.7167 30.2912C24.3866 33.7804 27.9535 29.2002 31.5945 24.5246Z" fill="#00162B" fill-opacity="0.2"/>
<path d="M40.5125 25.4846C34.8895 29.8081 29.7589 38.3501 24.9472 31.9441C20.1355 25.538 29.6438 22.8243 35.2668 18.5008C40.8899 14.1773 43.8615 14.3587 45.31 16.2872C46.7586 18.2158 46.1356 21.1611 40.5125 25.4846Z" fill="#00162B" fill-opacity="0.2"/>
<path fill-rule="evenodd" clip-rule="evenodd" d="M28.5961 35.1222C27.0081 35.0808 25.5638 34.2146 24.2569 32.4748C22.9501 30.7349 22.5121 29.095 22.898 27.5359C23.2699 26.0331 24.363 24.8072 25.6502 23.7583C26.947 22.7016 28.569 21.7248 30.1639 20.7696C30.2027 20.7464 30.2415 20.7231 30.2802 20.6999C31.8595 19.7541 33.4169 18.8214 34.7423 17.8024C37.5952 15.6088 39.8826 14.4697 41.7216 14.1826C42.655 14.0369 43.4942 14.1074 44.2302 14.3922C44.969 14.6782 45.5526 15.1604 46.0003 15.7565C46.448 16.3526 46.751 17.0506 46.8254 17.8474C46.8995 18.6411 46.742 19.4781 46.3532 20.3489C45.5873 22.0647 43.89 23.9894 41.0371 26.183C39.7117 27.2021 38.4065 28.4705 37.0829 29.7567L36.9854 29.8514C35.6486 31.1503 34.284 32.4699 32.9305 33.451C31.587 34.4249 30.1268 35.1621 28.5961 35.1222ZM36.4992 29.1076C37.8096 27.8342 39.1465 26.5349 40.5125 25.4846C46.1356 21.1611 46.7586 18.2158 45.31 16.2872C43.8615 14.3587 40.8899 14.1773 35.2668 18.5008C33.9009 19.5511 32.3056 20.5064 30.742 21.4427C25.8692 24.3606 21.3044 27.0942 24.9472 31.9441C28.59 36.7939 32.4156 33.0762 36.4992 29.1076Z" fill="#00162B" fill-opacity="0.2"/>
<path d="M34.0963 19.5567C29.26 24.764 24.6428 33.971 19.8498 29.4141C15.0568 24.8571 24.0347 19.796 28.871 14.5887C33.7074 9.38145 37.5024 7.6855 38.9453 9.05737C40.3883 10.4292 38.9327 14.3494 34.0963 19.5567Z" fill="#4CAA1F"/>
<path fill-rule="evenodd" clip-rule="evenodd" d="M23.6311 31.3788C22.1255 31.7655 20.6414 31.3704 19.2561 30.0533C17.8703 28.7358 17.3958 27.2668 17.708 25.7307C18.0003 24.2924 18.96 22.9234 20.11 21.6528C21.2739 20.3669 22.7387 19.0706 24.177 17.8004L24.2282 17.7551C25.6661 16.4851 27.0791 15.2372 28.2392 13.988C30.693 11.3461 32.9286 9.54277 34.7838 8.57605C35.7096 8.09357 36.587 7.79504 37.3787 7.73583C38.1825 7.67571 38.9545 7.86238 39.539 8.41814C40.1241 8.97438 40.355 9.74216 40.3434 10.557C40.332 11.359 40.0892 12.2613 39.6684 13.2236C38.8254 15.1518 37.1811 17.5163 34.7281 20.1574C33.6219 21.3485 32.5229 22.7596 31.4016 24.1993C31.3295 24.292 31.2572 24.3848 31.1848 24.4777C30.0021 25.9952 28.7908 27.5333 27.5695 28.7676C26.362 29.9879 25.047 31.0151 23.6311 31.3788ZM30.7276 23.6475C31.8419 22.2166 32.9631 20.7769 34.0963 19.5567C38.9327 14.3494 40.3883 10.4292 38.9453 9.05737C37.5024 7.6855 33.7074 9.38145 28.871 14.5887C27.6812 15.8698 26.2407 17.142 24.8163 18.4C20.4507 22.2557 16.2359 25.9782 19.8498 29.4141C23.5197 32.9032 27.0865 28.323 30.7276 23.6475Z" fill="#2B710A"/>
<path fill-rule="evenodd" clip-rule="evenodd" d="M30.0041 20.0407C31.0065 18.7302 32.0152 17.4117 33.0452 16.3026C35.9869 13.1353 37.5052 10.4468 37.7554 8.60361C38.2455 8.6202 38.646 8.77277 38.9453 9.05736C40.3883 10.4292 38.9327 14.3494 34.0964 19.5567C32.9631 20.7768 31.8419 22.2166 30.7276 23.6475C27.0865 28.323 23.5197 32.9032 19.8498 29.414C18.1217 27.771 18.1837 26.0625 19.1963 24.3052C19.3789 24.5458 19.5959 24.7868 19.8498 25.0282C23.5197 28.5174 26.7285 24.3227 30.0041 20.0407Z" fill="#419C15"/>
<path d="M33.9131 11.097C34.5225 12.101 30.9638 16.7987 27.194 19.8687C24.8659 21.7647 20.6917 25.1318 20.5354 23.6851C20.0458 23.1105 24.8807 18.9081 26.9773 17.2373C31.5289 13.6101 33.0053 10.3467 33.9131 11.097Z" fill="#5FCF2A"/>
<path fill-rule="evenodd" clip-rule="evenodd" d="M25.1163 19.9972C25.2856 20.1685 25.2856 20.4462 25.1163 20.6174C24.461 21.2805 23.9149 21.7092 23.2495 22.2316C23.0117 22.4184 22.7586 22.6171 22.4798 22.8427C22.2928 22.994 22.02 22.9634 21.8705 22.7742C21.7209 22.5851 21.7512 22.3091 21.9382 22.1578C22.2404 21.9131 22.5058 21.7048 22.749 21.5138C23.3979 21.0043 23.8892 20.6186 24.5033 19.9972C24.6726 19.8259 24.9471 19.8259 25.1163 19.9972Z" fill="#A0EA29"/>
<path d="M39.8102 24.667C34.1871 28.9905 29.0565 37.5325 24.2448 31.1264C19.4331 24.7204 28.9414 22.0066 34.5645 17.6831C40.1875 13.3596 43.1591 13.5411 44.6077 15.4696C46.0562 17.3982 45.4332 20.3435 39.8102 24.667Z" fill="#58C923"/>
<path fill-rule="evenodd" clip-rule="evenodd" d="M27.8938 34.3046C26.3058 34.2631 24.8614 33.397 23.5546 31.6572C22.2477 29.9173 21.8098 28.2774 22.1956 26.7183C22.5675 25.2155 23.6606 23.9895 24.9478 22.9407C26.2446 21.884 27.8667 20.9072 29.4615 19.952C29.5003 19.9287 29.5391 19.9055 29.5778 19.8823C31.1571 18.9365 32.7146 18.0038 34.0399 16.9847C36.8928 14.7912 39.1803 13.6521 41.0193 13.3649C41.9526 13.2192 42.7919 13.2898 43.5278 13.5746C44.2667 13.8606 44.8502 14.3428 45.2979 14.9389C45.7457 15.5349 46.0486 16.2329 46.123 17.0298C46.1972 17.8235 46.0396 18.6604 45.6509 19.5313C44.8849 21.247 43.1876 23.1718 40.3347 25.3654C39.0094 26.3844 37.7041 27.6528 36.3805 28.939L36.283 29.0338C34.9462 30.3326 33.5817 31.6523 32.2282 32.6334C30.8846 33.6072 29.4245 34.3445 27.8938 34.3046ZM35.7969 28.29C37.1072 27.0165 38.4442 25.7173 39.8102 24.667C45.4332 20.3435 46.0562 17.3982 44.6077 15.4696C43.1591 13.5411 40.1875 13.3596 34.5645 17.6831C33.1985 18.7334 31.6032 19.6887 30.0396 20.625C25.1669 23.543 20.602 26.2766 24.2448 31.1264C27.8876 35.9763 31.7132 32.2585 35.7969 28.29Z" fill="#2B710A"/>
<path fill-rule="evenodd" clip-rule="evenodd" d="M34.9299 26.5356C36.2403 25.2622 37.5772 23.963 38.9432 22.9127C43.2925 19.5685 44.6505 17.0489 44.3722 15.1866C44.4548 15.2761 44.5333 15.3705 44.6077 15.4696C46.0562 17.3982 45.4332 20.3435 39.8102 24.667C38.4442 25.7173 37.1073 27.0166 35.7969 28.29C31.7132 32.2586 27.8877 35.9763 24.2449 31.1264C23.6736 30.3659 23.3042 29.6573 23.1061 28.992C23.1911 29.1172 23.2816 29.2439 23.3779 29.3721C27.0207 34.222 30.8463 30.5042 34.9299 26.5356Z" fill="#4CAA1F"/>
<path d="M38.5055 17.9876C39.1149 18.9916 31.0954 24.6932 31.0954 24.6932C31.0954 24.6932 24.493 28.6455 24.0034 28.0709C23.5137 27.4964 26.5254 24.4525 28.928 23.2766C35.2544 20.1805 37.5977 17.2372 38.5055 17.9876Z" fill="#79E645"/>
<path fill-rule="evenodd" clip-rule="evenodd" d="M31.6851 22.7197C31.828 22.914 31.7881 23.1887 31.596 23.3333C31.0557 23.74 30.0954 24.2954 29.1608 24.836C29.0901 24.8768 29.0195 24.9176 28.9493 24.9583C27.9186 25.555 26.972 26.1124 26.5462 26.4741C26.3628 26.6299 26.0894 26.6057 25.9355 26.4202C25.7815 26.2347 25.8054 25.9581 25.9887 25.8023C26.4895 25.3769 27.5234 24.7732 28.5188 24.1969C28.5805 24.1612 28.6421 24.1256 28.7035 24.09C29.6653 23.5336 30.5826 23.0028 31.0785 22.6295C31.2706 22.485 31.5422 22.5253 31.6851 22.7197Z" fill="white"/>
<path d="M31.4326 20.947C31.4326 21.2598 31.1819 21.5135 30.8726 21.5135C30.5634 21.5135 30.3127 21.2598 30.3127 20.947C30.3127 20.6341 30.5634 20.3804 30.8726 20.3804C31.1819 20.3804 31.4326 20.6341 31.4326 20.947Z" fill="#47A21D"/>
<path d="M35.1653 19.4363C35.1653 19.7491 34.9147 20.0028 34.6054 20.0028C34.2962 20.0028 34.0455 19.7491 34.0455 19.4363C34.0455 19.1234 34.2962 18.8698 34.6054 18.8698C34.9147 18.8698 35.1653 19.1234 35.1653 19.4363Z" fill="#47A21D"/>
<path d="M37.405 17.1703C37.405 17.4831 37.1543 17.7368 36.8451 17.7368C36.5359 17.7368 36.2852 17.4831 36.2852 17.1703C36.2852 16.8574 36.5359 16.6037 36.8451 16.6037C37.1543 16.6037 37.405 16.8574 37.405 17.1703Z" fill="#47A21D"/>
<path d="M28.0731 23.9683C28.0731 24.2812 27.8224 24.5348 27.5131 24.5348C27.2039 24.5348 26.9532 24.2812 26.9532 23.9683C26.9532 23.6554 27.2039 23.4018 27.5131 23.4018C27.8224 23.4018 28.0731 23.6554 28.0731 23.9683Z" fill="#47A21D"/>
<path d="M33.299 19.6251C33.299 19.8337 33.1318 20.0028 32.9257 20.0028C32.7195 20.0028 32.5524 19.8337 32.5524 19.6251C32.5524 19.4165 32.7195 19.2474 32.9257 19.2474C33.1318 19.2474 33.299 19.4165 33.299 19.6251Z" fill="#47A21D"/>
<path d="M32.5524 21.5135C32.5524 21.722 32.3853 21.8911 32.1791 21.8911C31.973 21.8911 31.8058 21.722 31.8058 21.5135C31.8058 21.3049 31.973 21.1358 32.1791 21.1358C32.3853 21.1358 32.5524 21.3049 32.5524 21.5135Z" fill="#47A21D"/>
<path d="M35.9119 17.7368C35.9119 17.9453 35.7448 18.1144 35.5386 18.1144C35.3325 18.1144 35.1653 17.9453 35.1653 17.7368C35.1653 17.5282 35.3325 17.3591 35.5386 17.3591C35.7448 17.3591 35.9119 17.5282 35.9119 17.7368Z" fill="#47A21D"/>
<path d="M38.8981 16.2261C38.8981 16.4347 38.731 16.6037 38.5249 16.6037C38.3187 16.6037 38.1516 16.4347 38.1516 16.2261C38.1516 16.0175 38.3187 15.8484 38.5249 15.8484C38.731 15.8484 38.8981 16.0175 38.8981 16.2261Z" fill="#47A21D"/>
<path d="M26.2067 24.5348C26.2067 24.7434 26.0395 24.9125 25.8334 24.9125C25.6272 24.9125 25.4601 24.7434 25.4601 24.5348C25.4601 24.3262 25.6272 24.1572 25.8334 24.1572C26.0395 24.1572 26.2067 24.3262 26.2067 24.5348Z" fill="#47A21D"/>
<path d="M28.8196 22.6465C28.8196 22.8551 28.6525 23.0241 28.4463 23.0241C28.2402 23.0241 28.073 22.8551 28.073 22.6465C28.073 22.4379 28.2402 22.2688 28.4463 22.2688C28.6525 22.2688 28.8196 22.4379 28.8196 22.6465Z" fill="#47A21D"/>
<path d="M30.686 22.2688C30.686 22.686 30.3518 23.0241 29.9394 23.0241C29.5271 23.0241 29.1929 22.686 29.1929 22.2688C29.1929 21.8516 29.5271 21.5135 29.9394 21.5135C30.3518 21.5135 30.686 21.8516 30.686 22.2688Z" fill="#47A21D"/>
<path d="M33.6963 27.3247C33.6963 27.688 33.4052 27.9826 33.0461 27.9826C32.687 27.9826 32.3959 27.688 32.3959 27.3247C32.3959 26.9614 32.687 26.6668 33.0461 26.6668C33.4052 26.6668 33.6963 26.9614 33.6963 27.3247Z" fill="#79E745"/>
<path d="M31.0954 31.7105C31.0954 32.0739 30.8043 32.3684 30.4452 32.3684C30.0861 32.3684 29.795 32.0739 29.795 31.7105C29.795 31.3472 30.0861 31.0527 30.4452 31.0527C30.8043 31.0527 31.0954 31.3472 31.0954 31.7105Z" fill="#79E745"/>
<path d="M38.0312 25.1318C38.0312 25.4951 37.7401 25.7896 37.381 25.7896C37.0219 25.7896 36.7307 25.4951 36.7307 25.1318C36.7307 24.7684 37.0219 24.4739 37.381 24.4739C37.7401 24.4739 38.0312 24.7684 38.0312 25.1318Z" fill="#79E745"/>
<path d="M42.7995 21.1845C42.7995 21.5478 42.5084 21.8424 42.1493 21.8424C41.7902 21.8424 41.4991 21.5478 41.4991 21.1845C41.4991 20.8212 41.7902 20.5266 42.1493 20.5266C42.5084 20.5266 42.7995 20.8212 42.7995 21.1845Z" fill="#79E745"/>
<path d="M34.9968 27.9826C34.9968 28.2248 34.8027 28.4212 34.5633 28.4212C34.3239 28.4212 34.1298 28.2248 34.1298 27.9826C34.1298 27.7404 34.3239 27.544 34.5633 27.544C34.8027 27.544 34.9968 27.7404 34.9968 27.9826Z" fill="#79E745"/>
<path d="M39.3317 24.0353C39.3317 24.2775 39.1376 24.4739 38.8982 24.4739C38.6588 24.4739 38.4647 24.2775 38.4647 24.0353C38.4647 23.7931 38.6588 23.5967 38.8982 23.5967C39.1376 23.5967 39.3317 23.7931 39.3317 24.0353Z" fill="#79E745"/>
<path d="M36.7307 26.2282C36.7307 26.7127 36.3426 27.1054 35.8638 27.1054C35.385 27.1054 34.9968 26.7127 34.9968 26.2282C34.9968 25.7438 35.385 25.3511 35.8638 25.3511C36.3426 25.3511 36.7307 25.7438 36.7307 26.2282Z" fill="#79E745"/>
<path d="M40.6321 22.7196C40.6321 23.204 40.244 23.5967 39.7651 23.5967C39.2863 23.5967 38.8982 23.204 38.8982 22.7196C38.8982 22.2351 39.2863 21.8424 39.7651 21.8424C40.244 21.8424 40.6321 22.2351 40.6321 22.7196Z" fill="#79E745"/>
<path d="M32.8294 29.7369C32.8294 30.2214 32.4412 30.6141 31.9624 30.6141C31.4836 30.6141 31.0954 30.2214 31.0954 29.7369C31.0954 29.2525 31.4836 28.8597 31.9624 28.8597C32.4412 28.8597 32.8294 29.2525 32.8294 29.7369Z" fill="#79E745"/>
</svg>
